<svg xmlns="http://www.w3.org/2000/svg" viewBox="0 0 256 256"><rect x="8" y="8" width="240" height="240" rx="58" fill="#153b3d"/><path d="M56 126h144l16 64a18 18 0 0 1-18 22H58a18 18 0 0 1-18-22z" fill="#bdece0"/><path d="M56 126h144l12 48H44z" fill="#e8faf5"/><rect x="59" y="186" width="62" height="8" rx="4" fill="#32675e"/><circle cx="183" cy="190" r="7" fill="#229e79"/><path d="M73 122a27 27 0 0 1 0-54 41 41 0 0 1 78-6 30 30 0 1 1 11 60z" fill="#53c9ab"/><path d="M127 78v39m-15-14 15 15 15-15" fill="none" stroke="#fff" stroke-linecap="round" stroke-linejoin="round" stroke-width="9"/></svg>
